<svg width="69" height="44" viewBox="0 0 69 44" fill="none" xmlns="http://www.w3.org/2000/svg">
<path d="M30.3159 13.5388L28.7771 12L27.2231 13.554L28.7619 15.0927L30.3159 13.5388Z" fill="#7B97FF"/>
<path d="M31.8544 15.0773L30.3156 13.5385L28.7616 15.0925L30.3004 16.6312L31.8544 15.0773Z" fill="#7B97FF"/>
<path d="M33.3984 16.6213L31.8596 15.0826L30.3057 16.6365L31.8444 18.1753L33.3984 16.6213Z" fill="#7B97FF"/>
<path d="M34.9369 18.1599L33.3981 16.6211L31.8442 18.1751L33.3829 19.7138L34.9369 18.1599Z" fill="#7B97FF"/>
<path d="M36.4782 19.7011L34.9395 18.1624L33.3855 19.7163L34.9242 21.2551L36.4782 19.7011Z" fill="#7B97FF"/>
<path d="M34.9245 21.2548L33.3857 19.7161L31.8317 21.27L33.3705 22.8088L34.9245 21.2548Z" fill="#7B97FF"/>
<path d="M33.3666 22.8127L31.8278 21.274L30.2739 22.828L31.8126 24.3667L33.3666 22.8127Z" fill="#7B97FF"/>
<path d="M31.8129 24.3664L30.2742 22.8276L28.7202 24.3815L30.259 25.9203L31.8129 24.3664Z" fill="#7B97FF"/>
<path d="M30.2551 25.9242L28.7163 24.3854L27.1623 25.9395L28.7011 27.4782L30.2551 25.9242Z" fill="#7B97FF"/>
<path d="M28.7138 24.3829L27.175 22.8442L25.621 24.3982L27.1598 25.937L28.7138 24.3829Z" fill="#7B97FF"/>
<path d="M27.1753 22.8444L25.6365 21.3057L24.0825 22.8597L25.6213 24.3984L27.1753 22.8444Z" fill="#7B97FF"/>
<path d="M25.6313 21.3004L24.0925 19.7616L22.5385 21.3156L24.0773 22.8544L25.6313 21.3004Z" fill="#7B97FF"/>
<path d="M24.0928 19.7618L22.554 18.2231L21 19.7771L22.5388 21.3159L24.0928 19.7618Z" fill="#7B97FF"/>
<path d="M25.6506 18.204L24.1118 16.6653L22.5579 18.2192L24.0966 19.758L25.6506 18.204Z" fill="#7B97FF"/>
<path d="M27.2042 16.6504L25.6655 15.1116L24.1115 16.6656L25.6503 18.2044L27.2042 16.6504Z" fill="#7B97FF"/>
<path d="M28.7621 15.0925L27.2234 13.5537L25.6694 15.1077L27.2082 16.6464L28.7621 15.0925Z" fill="#7B97FF"/>
<path d="M30.2869 19.7328L28.7481 18.1941L27.1941 19.7481L28.7329 21.2868L30.2869 19.7328Z" fill="#7B97FF"/>
<path d="M41.8558 0H39.6797V2.19764H41.8558V0Z" fill="#9A9CA5"/>
<path d="M44.0316 0H41.8555V2.19764H44.0316V0Z" fill="#9A9CA5"/>
<path d="M46.2073 0H44.0312V2.19764H46.2073V0Z" fill="#9A9CA5"/>
<path d="M48.3871 0H46.2109V2.19764H48.3871V0Z" fill="#9A9CA5"/>
<path d="M50.5628 0H48.3867V2.19764H50.5628V0Z" fill="#9A9CA5"/>
<path d="M50.5628 2.19727H48.3867V4.39491H50.5628V2.19727Z" fill="#9A9CA5"/>
<path d="M50.5628 4.40039H48.3867V6.59803H50.5628V4.40039Z" fill="#9A9CA5"/>
<path d="M50.5628 6.59766H48.3867V8.79527H50.5628V6.59766Z" fill="#9A9CA5"/>
<path d="M50.5628 8.80078H48.3867V10.9985H50.5628V8.80078Z" fill="#9A9CA5"/>
<path d="M48.3871 8.80078H46.2109V10.9985H48.3871V8.80078Z" fill="#9A9CA5"/>
<path d="M46.2073 8.80078H44.0312V10.9985H46.2073V8.80078Z" fill="#9A9CA5"/>
<path d="M44.0316 8.80078H41.8555V10.9985H44.0316V8.80078Z" fill="#9A9CA5"/>
<path d="M41.8558 8.80078H39.6797V10.9985H41.8558V8.80078Z" fill="#9A9CA5"/>
<path d="M41.8558 6.59766H39.6797V8.79527H41.8558V6.59766Z" fill="#9A9CA5"/>
<path d="M41.8558 4.40039H39.6797V6.59803H41.8558V4.40039Z" fill="#9A9CA5"/>
<path d="M41.8558 2.19727H39.6797V4.39491H41.8558V2.19727Z" fill="#9A9CA5"/>
<path d="M9.1761 0H7V2.19764H9.1761V0Z" fill="#9A9CA5"/>
<path d="M11.3519 0H9.17578V2.19764H11.3519V0Z" fill="#9A9CA5"/>
<path d="M13.5276 0H11.3515V2.19764H13.5276V0Z" fill="#9A9CA5"/>
<path d="M15.7074 0H13.5312V2.19764H15.7074V0Z" fill="#9A9CA5"/>
<path d="M17.8831 0H15.707V2.19764H17.8831V0Z" fill="#9A9CA5"/>
<path d="M17.8831 2.19727H15.707V4.39491H17.8831V2.19727Z" fill="#9A9CA5"/>
<path d="M17.8831 4.40039H15.707V6.59803H17.8831V4.40039Z" fill="#9A9CA5"/>
<path d="M17.8831 6.59766H15.707V8.79527H17.8831V6.59766Z" fill="#9A9CA5"/>
<path d="M17.8831 8.80078H15.707V10.9985H17.8831V8.80078Z" fill="#9A9CA5"/>
<path d="M15.7074 8.80078H13.5312V10.9985H15.7074V8.80078Z" fill="#9A9CA5"/>
<path d="M13.5276 8.80078H11.3515V10.9985H13.5276V8.80078Z" fill="#9A9CA5"/>
<path d="M11.3519 8.80078H9.17578V10.9985H11.3519V8.80078Z" fill="#9A9CA5"/>
<path d="M9.1761 8.80078H7V10.9985H9.1761V8.80078Z" fill="#9A9CA5"/>
<path d="M9.1761 6.59766H7V8.79527H9.1761V6.59766Z" fill="#9A9CA5"/>
<path d="M9.1761 4.40039H7V6.59803H9.1761V4.40039Z" fill="#9A9CA5"/>
<path d="M9.1761 2.19727H7V4.39491H9.1761V2.19727Z" fill="#9A9CA5"/>
<path d="M9.17613 33.002H7V35.1996H9.17613V33.002Z" fill="#9A9CA5"/>
<path d="M11.3519 33.002H9.17578V35.1996H11.3519V33.002Z" fill="#9A9CA5"/>
<path d="M13.5355 33.002H11.3594V35.1996H13.5355V33.002Z" fill="#9A9CA5"/>
<path d="M15.7113 33.002H13.5352V35.1996H15.7113V33.002Z" fill="#9A9CA5"/>
<path d="M17.891 33.002H15.7148V35.1996H17.891V33.002Z" fill="#9A9CA5"/>
<path d="M17.891 35.1992H15.7148V37.3968H17.891V35.1992Z" fill="#9A9CA5"/>
<path d="M17.891 37.3966H15.7149V39.5942H17.891V37.3966Z" fill="#9A9CA5"/>
<path d="M17.891 39.5995H15.7149V41.7971H17.891V39.5995Z" fill="#9A9CA5"/>
<path d="M17.891 41.7969H15.7148V43.9945H17.891V41.7969Z" fill="#9A9CA5"/>
<path d="M15.7113 41.7969H13.5352V43.9945H15.7113V41.7969Z" fill="#9A9CA5"/>
<path d="M13.5355 41.7969H11.3594V43.9945H13.5355V41.7969Z" fill="#9A9CA5"/>
<path d="M11.3519 41.7969H9.17578V43.9945H11.3519V41.7969Z" fill="#9A9CA5"/>
<path d="M9.17613 41.7969H7V43.9945H9.17613V41.7969Z" fill="#9A9CA5"/>
<path d="M9.17613 39.5995H7V41.7971H9.17613V39.5995Z" fill="#9A9CA5"/>
<path d="M9.17613 37.3966H7V39.5942H9.17613V37.3966Z" fill="#9A9CA5"/>
<path d="M9.17613 35.1992H7V37.3968H9.17613V35.1992Z" fill="#9A9CA5"/>
<path d="M41.8558 33.002H39.6797V35.1996H41.8558V33.002Z" fill="#9A9CA5"/>
<path d="M44.0316 33.002H41.8555V35.1996H44.0316V33.002Z" fill="#9A9CA5"/>
<path d="M46.2073 33.002H44.0312V35.1996H46.2073V33.002Z" fill="#9A9CA5"/>
<path d="M48.3871 33.002H46.2109V35.1996H48.3871V33.002Z" fill="#9A9CA5"/>
<path d="M50.5628 33.002H48.3867V35.1996H50.5628V33.002Z" fill="#9A9CA5"/>
<path d="M50.5628 35.1992H48.3867V37.3968H50.5628V35.1992Z" fill="#9A9CA5"/>
<path d="M50.5628 37.3965H48.3867V39.5941H50.5628V37.3965Z" fill="#9A9CA5"/>
<path d="M50.5628 39.5996H48.3867V41.7973H50.5628V39.5996Z" fill="#9A9CA5"/>
<path d="M50.5628 41.7969H48.3867V43.9945H50.5628V41.7969Z" fill="#9A9CA5"/>
<path d="M48.3871 41.7969H46.2109V43.9945H48.3871V41.7969Z" fill="#9A9CA5"/>
<path d="M46.2073 41.7969H44.0312V43.9945H46.2073V41.7969Z" fill="#9A9CA5"/>
<path d="M44.0316 41.7969H41.8555V43.9945H44.0316V41.7969Z" fill="#9A9CA5"/>
<path d="M41.8558 41.7969H39.6797V43.9945H41.8558V41.7969Z" fill="#9A9CA5"/>
<path d="M41.8558 39.5996H39.6797V41.7973H41.8558V39.5996Z" fill="#9A9CA5"/>
<path d="M41.8558 37.3965H39.6797V39.5941H41.8558V37.3965Z" fill="#9A9CA5"/>
<path d="M41.8558 35.1992H39.6797V37.3968H41.8558V35.1992Z" fill="#9A9CA5"/>
<path d="M43.75 21.0078H42.3398L43.8555 18.1094L42.4453 15.0039H43.75L44.8633 17.4453H45.2617L46.3789 15.0039H47.6914L46.2695 18.1094L47.7891 21.0078H46.3789L45.2656 18.6641H44.8672L43.75 21.0078Z" fill="#7B97FF"/>
<path fill-rule="evenodd" clip-rule="evenodd" d="M48.3945 21.0039V15H51.4968C52.1787 15.0067 53.5425 15.4514 53.5425 17.1766C53.5425 18.9017 52.1787 19.2986 51.4968 19.2813H49.7022V21.0039H48.3945ZM49.7023 16.2288V18.0688H51.4171C51.6862 18.0688 52.2245 17.8848 52.2245 17.1488C52.2245 16.4128 51.6862 16.2288 51.4171 16.2288H49.7023Z" fill="#7B97FF"/>
<path d="M38 15V21.0078H42.2382V19.7706H39.3125V15H38Z" fill="#7B97FF"/>
<g filter="url(#filter0_f_15_249)">
<rect x="28.5557" y="18" width="2.47656" height="2.2" transform="rotate(45 28.5557 18)" fill="#7B97FF"/>
</g>
<g filter="url(#filter1_d_15_249)">
<path d="M8.03423 25.481C8.03423 25.8619 7.9866 26.2078 7.89136 26.5187C7.79862 26.8295 7.65199 27.0951 7.45146 27.3157C7.25345 27.5338 6.99904 27.703 6.68823 27.8233C6.37743 27.9411 6.00521 28 5.57158 28H4.32334V23.086H5.77837C6.15435 23.086 6.4827 23.1336 6.76343 23.2289C7.04666 23.3216 7.28228 23.4657 7.47026 23.6612C7.65825 23.8567 7.79862 24.1049 7.89136 24.4057C7.9866 24.7064 8.03423 25.0649 8.03423 25.481ZM7.04165 25.5411C7.04165 25.2754 7.02034 25.0386 6.97773 24.8305C6.93512 24.6225 6.86243 24.447 6.75967 24.3042C6.65941 24.1588 6.52406 24.0485 6.35361 23.9733C6.18317 23.8981 5.97137 23.8605 5.71821 23.8605H5.24824V27.2255H5.6543C6.10798 27.2255 6.45262 27.0901 6.68823 26.8194C6.92384 26.5487 7.04165 26.1226 7.04165 25.5411ZM11.4293 28L11.1586 27.03H9.44414L9.16592 28H8.24854L9.70356 23.086H10.9969L12.452 28H11.4293ZM10.3126 23.9883L9.66597 26.2743H10.9518L10.3126 23.9883ZM15.4297 28L14.7379 26.4209C14.6727 26.2705 14.5812 26.1577 14.4634 26.0825C14.3481 26.0048 14.2115 25.966 14.0536 25.966H13.8769V28H12.952V23.086H14.3845C14.6552 23.086 14.9008 23.1098 15.1214 23.1574C15.342 23.2025 15.5299 23.279 15.6854 23.3868C15.8408 23.4945 15.9598 23.6349 16.0425 23.8079C16.1278 23.9808 16.1704 24.1926 16.1704 24.4433C16.1704 24.6237 16.144 24.7841 16.0914 24.9245C16.0388 25.0649 15.9648 25.1864 15.8696 25.2892C15.7743 25.3895 15.6603 25.4709 15.5274 25.5336C15.3971 25.5963 15.2542 25.6401 15.0988 25.6652C15.2191 25.6903 15.3294 25.7592 15.4297 25.872C15.5299 25.9823 15.6302 26.1427 15.7305 26.3532L16.5163 28H15.4297ZM15.2003 24.5335C15.2003 24.2929 15.1239 24.1199 14.971 24.0146C14.8181 23.9094 14.5888 23.8567 14.283 23.8567H13.8769V25.2441H14.2529C14.3958 25.2441 14.5248 25.2291 14.6401 25.199C14.7579 25.1689 14.8582 25.1238 14.9409 25.0636C15.0236 25.0035 15.0875 24.9295 15.1327 24.8418C15.1778 24.7516 15.2003 24.6488 15.2003 24.5335ZM19.603 28L18.1254 25.6238V28H17.1855V23.086H18.1254V25.323L19.5955 23.086H20.7122L19.0428 25.4283L20.7986 28H19.603Z" fill="#7B97FF"/>
</g>
<defs>
<filter id="filter0_f_15_249" x="24" y="15" width="9.30688" height="9.30682" filterUnits="userSpaceOnUse" color-interpolation-filters="sRGB">
<feFlood flood-opacity="0" result="BackgroundImageFix"/>
<feBlend mode="normal" in="SourceGraphic" in2="BackgroundImageFix" result="shape"/>
<feGaussianBlur stdDeviation="1.5" result="effect1_foregroundBlur_15_249"/>
</filter>
<filter id="filter1_d_15_249" x="0.323364" y="23.086" width="24.4753" height="12.914" filterUnits="userSpaceOnUse" color-interpolation-filters="sRGB">
<feFlood flood-opacity="0" result="BackgroundImageFix"/>
<feColorMatrix in="SourceAlpha" type="matrix" values="0 0 0 0 0 0 0 0 0 0 0 0 0 0 0 0 0 0 127 0" result="hardAlpha"/>
<feOffset dy="4"/>
<feGaussianBlur stdDeviation="2"/>
<feComposite in2="hardAlpha" operator="out"/>
<feColorMatrix type="matrix" values="0 0 0 0 0 0 0 0 0 0 0 0 0 0 0 0 0 0 0.25 0"/>
<feBlend mode="normal" in2="BackgroundImageFix" result="effect1_dropShadow_15_249"/>
<feBlend mode="normal" in="SourceGraphic" in2="effect1_dropShadow_15_249" result="shape"/>
</filter>
</defs>
</svg>
