<svg width="24" height="24" viewBox="0 0 24 24" fill="none" xmlns="http://www.w3.org/2000/svg">
<g clip-path="url(#clip0_18_4)">
<path d="M19.684 5.82095L10.684 2.54895C10.3819 2.43851 10.0576 2.40264 9.73869 2.44439C9.41977 2.48613 9.11563 2.60426 8.85214 2.78872C8.58865 2.97319 8.37358 3.21854 8.22522 3.50393C8.07687 3.78932 7.9996 4.1063 8 4.42795V10.5569C7.39487 10.1964 6.70439 10.0041 6 9.99995C3.794 9.99995 2 11.7939 2 13.9999C2 16.2059 3.794 17.9999 6 17.9999C8.206 17.9999 10 16.2059 10 13.9999V4.42795L19 7.69995V14.5559C18.3946 14.1962 17.7042 14.0042 17 13.9999C14.794 13.9999 13 15.7939 13 17.9999C13 20.2059 14.794 22 17 22C19.206 22 21 20.2059 21 17.9999V7.69995C21 6.86195 20.471 6.10595 19.684 5.82095ZM6 15.9999C4.897 15.9999 4 15.1029 4 13.9999C4 12.8969 4.897 11.9999 6 11.9999C7.103 11.9999 8 12.8969 8 13.9999C8 15.1029 7.103 15.9999 6 15.9999ZM17 20C15.897 20 15 19.1029 15 17.9999C15 16.8969 15.897 15.9999 17 15.9999C18.103 15.9999 19 16.8969 19 17.9999C19 19.1029 18.103 20 17 20Z" fill="#7B97FF"/>
<g filter="url(#filter0_f_18_4)">
<path d="M19.684 5.82095L10.684 2.54895C10.3819 2.43851 10.0576 2.40264 9.73869 2.44439C9.41977 2.48613 9.11563 2.60426 8.85214 2.78872C8.58865 2.97319 8.37358 3.21854 8.22522 3.50393C8.07687 3.78932 7.9996 4.1063 8 4.42795V10.5569C7.39487 10.1964 6.70439 10.0041 6 9.99995C3.794 9.99995 2 11.7939 2 13.9999C2 16.2059 3.794 17.9999 6 17.9999C8.206 17.9999 10 16.2059 10 13.9999V4.42795L19 7.69995V14.5559C18.3946 14.1962 17.7042 14.0042 17 13.9999C14.794 13.9999 13 15.7939 13 17.9999C13 20.2059 14.794 22 17 22C19.206 22 21 20.2059 21 17.9999V7.69995C21 6.86195 20.471 6.10595 19.684 5.82095ZM6 15.9999C4.897 15.9999 4 15.1029 4 13.9999C4 12.8969 4.897 11.9999 6 11.9999C7.103 11.9999 8 12.8969 8 13.9999C8 15.1029 7.103 15.9999 6 15.9999ZM17 20C15.897 20 15 19.1029 15 17.9999C15 16.8969 15.897 15.9999 17 15.9999C18.103 15.9999 19 16.8969 19 17.9999C19 19.1029 18.103 20 17 20Z" fill="#7B97FF"/>
</g>
</g>
<defs>
<filter id="filter0_f_18_4" x="-2" y="-1.57251" width="27" height="27.5725" filterUnits="userSpaceOnUse" color-interpolation-filters="sRGB">
<feFlood flood-opacity="0" result="BackgroundImageFix"/>
<feBlend mode="normal" in="SourceGraphic" in2="BackgroundImageFix" result="shape"/>
<feGaussianBlur stdDeviation="2" result="effect1_foregroundBlur_18_4"/>
</filter>
<clipPath id="clip0_18_4">
<rect width="24" height="24" fill="white"/>
</clipPath>
</defs>
</svg>
